<?xml version="1.0" encoding="UTF-8"?>
<svg width="400px" height="90px" viewBox="0 0 400 90" version="1.1" xmlns="http://www.w3.org/2000/svg" xmlns:xlink="http://www.w3.org/1999/xlink">
    <title>Group 2</title>
    <defs>
        <rect id="path-1" x="2.13194435e-05" y="0" width="400" height="90" rx="45"></rect>
        <path d="M383.620708,92.8078772 C379.812299,83.5111378 366.875947,81.1118793 361.331351,72.1618714 C360.449256,70.7346996 359.851858,69.2177491 358.815747,67.8493978 C356.734189,65.0941204 354.44261,62.4100467 352.244373,59.6950149 C349.668096,56.5279938 347.306509,53.2742897 344.478204,50.2094306 C341.085173,46.5315995 337.318767,43.0023678 333.664374,39.439082 C333.239662,39.0304341 332.562922,38.7332356 331.95619,38.4267497 C329.337909,37.083165 327.648394,35.405232 327.550383,33.7118199 C324.470052,32.0803242 321.473729,31.1825371 320.227595,29.659395 C318.729434,27.8359586 316.335177,27.0960582 314.206948,25.981564 C313.287515,25.5017123 312.218734,25.1456933 311.25263,24.6967998 C306.221422,22.3501702 301.208883,19.9942532 296.182342,17.6414321 C293.638735,18.2977453 293.484718,16.1987812 291.533842,15.8830078 C289.50829,15.5486595 287.767437,14.4434527 285.900569,13.67569 C283.571652,12.7221783 281.410753,11.3785936 278.871813,10.8832628 C268.422022,8.81835263 258.471618,5.72253528 247.597115,4.50587906 C240.773714,3.73811636 234.137,2.29546548 227.383607,1.26146248 C224.219266,0.781610794 220.774896,-0.0821222461 217.806577,0.329621461 C212.257313,1.10047998 206.740719,1.37600772 201.126115,1.41625335 C196.836987,1.44101989 192.533858,1.70416436 188.249397,1.60509821 C182.415436,1.46888224 176.595476,0.917826757 170.761515,0.862102045 C164.698863,0.806377332 158.640878,0.818760602 152.76958,2.39143581 C147.878387,3.70096655 142.744501,4.94238931 137.559277,5.3696121 C128.682322,6.10332081 120.724799,8.36945911 112.953963,10.9513708 C108.034767,12.5859623 102.154134,12.4064049 97.7343256,14.8490048 C97.1602638,15.167874 95.9187969,14.9294961 94.9946975,14.9945082 C92.8618014,15.1369158 90.2995257,14.8613881 88.6846853,15.557947 C85.6650271,16.8581903 83.1354216,18.6909141 80.5078056,20.3781346 C79.5557032,20.9911064 79.0143116,21.879606 78.1182152,22.5513984 C74.8932016,24.9909024 70.6507452,26.8174347 68.2051487,29.7398863 C67.3743927,30.7336436 66.7069876,31.8512337 65.5681984,32.6716253 C61.3864152,35.6683765 58.3247524,39.1202128 55.4031048,42.6711153 C53.9236123,44.4666894 51.6366996,45.9805441 50.2552176,47.8008847 C47.4035775,51.5592069 44.9159766,55.4475535 42.2510232,59.2770796 C41.7983078,59.9333928 41.2895864,60.5989936 40.6128469,61.1562407 C39.175359,62.3481304 37.4531737,63.4038041 36.1557008,64.6545143 C34.8488935,65.9114161 34.2281601,67.5088579 32.7626691,68.6574061 C27.9974898,72.3971535 26.8166961,76.9789631 25.9486027,81.5329105 C25.1925213,85.4986525 23.4983391,89.2445915 21.062077,92.8078772 C18.9291808,95.9315569 16.7356115,98.9871287 15.3774654,102.336803 C13.6926175,106.500677 11.3917033,110.546911 9.56684027,114.689114 C8.8294276,116.367047 34.0603802,109.52526 33.7196769,111.277493 C32.6322266,116.77876 11.6337487,121.418473 11.6337487,128.681318 C11.6337487,129.458103 5.76718946,140.318503 5.59450422,141.148182 C5.38448162,142.169802 0.0370922429,152.050704 0.0417594117,153.072324 C0.0604280868,159.363024 -0.0609183014,156.778326 0.0417594117,163.072123 C0.055760918,164.084455 1.9995788,169.744749 2.59697641,170.596099 C4.30982735,173.047986 2.47563002,174.280839 2.59697641,176.875134 C2.72765713,179.66137 4.79641836,177.122463 5.59450422,179.859165 C6.68662171,183.614392 13.9166416,185.320747 15.3774654,189.023344 C16.6049308,192.131545 7.77464746,203.618328 9.56684027,206.584121 C11.107006,209.119595 16.1169767,214.547799 18.1611967,216.956344 C20.8121485,220.101695 30.0557112,213.13301 31.600544,216.727254 C31.6378814,216.813937 31.8105666,216.875853 31.9132444,216.956344 C36.4777354,220.398893 41.0608952,223.832155 45.592716,227.296374 C47.5155896,228.769983 48.8877372,231.011355 51.2819948,231.655285 C55.6644662,232.840983 56.0798443,236.543581 60.663004,237.29896 C62.3571863,239.580578 65.4655207,240.921067 68.3404966,242.441113 C70.0393461,243.341996 71.4394967,244.484352 73.0123326,245.487397 C74.8138597,246.626658 76.4100314,248.035255 78.5195917,248.809209 C84.39089,250.957706 90.3135272,253.118587 96.5255289,254.746987 C103.787643,256.65401 111.334455,258.087374 118.834596,259.573366 C123.128391,260.42162 127.552867,261.0284 131.958674,261.607318 C134.366933,261.926187 136.868536,261.885942 139.300131,262.142894 C145.848168,262.82707 152.358869,264.087068 158.916241,264.195421 C168.642621,264.353308 178.401671,263.758911 188.137385,263.3967 C192.762549,263.223335 197.383046,262.879699 201.998876,262.548447 C204.789843,262.347218 207.562141,261.759013 210.334439,261.786875 C219.076047,261.885942 227.336935,260.139901 235.817181,259.20806 C240.391006,258.706537 244.712805,257.291749 249.519988,257.570372 C250.350744,257.623001 251.354186,257.307228 252.082264,256.979071 C258.756315,253.948266 266.284459,253.555097 273.975953,253.90802 C282.75023,254.307381 290.455726,252.787334 296.952425,248.806113 C299.496032,247.245821 302.05364,245.697913 304.480568,244.069513 C306.328767,242.824994 307.976277,241.44426 309.763803,240.1564 C310.491881,239.630111 311.294634,239.131684 312.162728,238.710653 C316.969912,236.360928 321.898442,234.128843 326.579612,231.676956 C328.493151,230.673911 330.009981,229.290081 331.512809,227.986742 C334.658481,225.250039 370.221267,238.497042 373.324934,235.741764 C375.448496,233.868795 378.360809,232.31779 378.384145,229.627525 C378.384145,229.110523 379.317579,228.578043 379.844969,228.067233 C380.913751,227.045613 392.667432,233.204319 383.051314,225.00547 C373.435195,216.80662 387.065079,219.380369 389.482672,216.727254 C392.502331,213.402346 382.565928,201.217546 383.620708,197.21775 C383.70005,196.923647 384.082758,196.66979 384.297448,196.391167 C386.05697,194.097166 388.157196,191.883657 389.482672,189.481303 C391.251529,186.289515 392.488329,182.961511 393.809138,179.66137 C394.154508,178.779062 394.056498,177.803879 394.056498,176.875134 C394.056498,175.751353 398.663557,174.590421 398.948255,173.509981 C399.923693,169.788808 397.36283,160.096733 399.500393,156.437477 C400.060453,155.468486 399.50506,154.202297 399.444387,153.072324 C399.40705,152.279794 399.234364,151.484169 399.304372,150.694736 C399.500393,148.540047 399.929773,146.388454 399.99759,144.239957 C400.177132,139.385715 390.273728,133.678234 387.809415,128.681318 C385.345103,123.684402 389.076629,107.417039 389.482672,102.336803 C389.860713,97.5259029 385.436237,97.2318002 383.620708,92.8078772 Z M68.9355731,199.464731 C66.8531256,199.508599 65.9177473,198.856843 65.1349833,198.297002 C61.1916253,195.510328 56.2341203,192.968063 52.9996806,189.504567 C57.4845734,190.110365 61.0242419,190.519802 64.8100625,190.158411 C65.4746734,190.091565 67.4685061,190.954305 67.3060456,191.1256 C65.6962103,192.809302 69.2555709,194.091924 68.9848035,195.654467 C68.7731126,196.849352 68.9355731,198.054682 68.9355731,199.464731 Z M36.7795825,161.942918 C36.6842179,162.491251 34.7264402,162.988969 33.4193851,163.60268 C31.1979524,162.837123 30.1096748,162.487033 31.8879429,161.386149 C33.6325529,160.308463 33.5764561,158.821637 34.3674207,157.522509 C34.7600982,156.887708 35.2986274,156.261343 35.77545,155.632869 C36.1569082,155.656067 36.5495856,155.681375 36.9310438,155.704574 C36.9310438,157.784022 37.1610406,159.874015 36.7795825,161.942918 Z M67.9184397,128.829632 C66.6027641,129.573134 65.779172,130.346984 66.9342729,131.139801 C68.9958432,132.562319 66.4214703,132.197797 64.3081017,133.098725 C62.1066761,134.037587 59.4235268,134.95784 55.9996626,134.652472 C57.6934653,133.18633 58.9884215,131.832093 60.7858208,130.572691 C62.8422113,129.117929 65.1316939,127.689721 67.7423256,126.362037 C69.0580011,125.696299 71.311225,125.280923 73.144883,124.74985 C73.4349532,124.865548 73.7146637,124.979349 73.9995541,125.091254 C71.9794224,126.34307 70.0628872,127.611956 67.9184397,128.829632 Z M201.197788,205.034386 C199.973795,205.225662 198.755802,205.419926 196.703815,205.745692 C197.255811,204.974612 197.48981,204.179624 197.909807,204.155714 C198.995801,204.092952 200.153794,204.364922 201.293787,204.50539 C201.263787,204.681722 201.233787,204.858054 201.197788,205.034386 Z M299.998192,130.727208 C300.110373,130.271906 299.926805,129.762208 300.395924,129.369359 C306.045748,124.628973 311.797555,119.906719 317.998084,114.787586 C317.936894,117.271604 306.081442,127.912793 299.998192,130.727208 Z M223.66248,207.436642 C223.43988,207.372837 223.217281,207.306752 222.998656,207.242946 C223.960604,205.83922 224.831127,204.405869 225.928224,203.034046 C226.572172,202.227359 227.172396,202.266098 229.998614,203.138869 C227.728895,204.679322 225.697675,206.057982 223.66248,207.436642 Z M272.998355,139.693246 C272.998355,137.418428 274.509295,136.545479 278.998319,136.728026 C276.644318,137.891179 274.919876,138.745405 272.998355,139.693246 Z M325.918856,102.832869 C323.335729,101.810327 319.656207,101.002605 321.493098,98.847963 C323.525158,100.224957 325.264464,101.400021 326.99803,102.572937 C326.642132,102.658865 326.280494,102.744793 325.918856,102.832869 Z M354.884486,169.580039 C353.015562,169.160105 351.531027,168.829518 349.997891,168.487763 C350.877125,167.111809 351.592883,165.988263 352.317477,164.864716 C352.993471,163.810413 353.673883,162.758345 354.407314,161.610227 C356.395531,163.803712 356.479478,164.992036 354.884486,169.580039 Z M357.826417,164.598906 C353.398444,162.531737 353.446444,162.394755 359.308408,161.610227 C358.726412,162.783284 358.318414,163.60268 357.826417,164.598906 Z" id="path-3"></path>
    </defs>
    <g id="Page-1" stroke="none" stroke-width="1" fill="none" fill-rule="evenodd">
        <g id="(Article-page)desktop/-spacial-share--button" transform="translate(-520.000000, -911.000000)">
            <g id="Group-2" transform="translate(520.000000, 911.000000)">
                <mask id="mask-2" fill="white">
                    <use xlink:href="#path-1"></use>
                </mask>
                <use id="Mask" fill="#FFFFFF" xlink:href="#path-1"></use>
                <g id="Covid-Copy-5" mask="url(#mask-2)">
                    <g transform="translate(0.000000, -118.221548)">
                        <mask id="mask-4" fill="white">
                            <use xlink:href="#path-3"></use>
                        </mask>
                        <use id="Mask" stroke="none" fill="#191919" fill-rule="nonzero" xlink:href="#path-3"></use>
                    </g>
                </g>
            </g>
        </g>
    </g>
</svg>